<?xml version="1.0" encoding="UTF-8" standalone="no"?>
<!-- Created with Inkscape (http://www.inkscape.org/) -->

<svg
   xmlns:dc="http://purl.org/dc/elements/1.1/"
   xmlns:cc="http://creativecommons.org/ns#"
   xmlns:rdf="http://www.w3.org/1999/02/22-rdf-syntax-ns#"
   xmlns:svg="http://www.w3.org/2000/svg"
   xmlns="http://www.w3.org/2000/svg"
   xmlns:sodipodi="http://sodipodi.sourceforge.net/DTD/sodipodi-0.dtd"
   xmlns:inkscape="http://www.inkscape.org/namespaces/inkscape"
   width="744.09448819"
   height="1052.3622047"
   id="svg2"
   version="1.1"
   inkscape:version="0.48.3.1 r9886"
   sodipodi:docname="drawing.svg">
  <defs
     id="defs4" />
  <sodipodi:namedview
     id="base"
     pagecolor="#ffffff"
     bordercolor="#666666"
     borderopacity="1.0"
     inkscape:pageopacity="0.0"
     inkscape:pageshadow="2"
     inkscape:zoom="1.4992801"
     inkscape:cx="242.21148"
     inkscape:cy="795.47711"
     inkscape:document-units="px"
     inkscape:current-layer="layer1"
     showgrid="false"
     inkscape:window-width="1280"
     inkscape:window-height="776"
     inkscape:window-x="0"
     inkscape:window-y="24"
     inkscape:window-maximized="1" />
  <metadata
     id="metadata7">
    <rdf:RDF>
      <cc:Work
         rdf:about="">
        <dc:format>image/svg+xml</dc:format>
        <dc:type
           rdf:resource="http://purl.org/dc/dcmitype/StillImage" />
        <dc:title />
      </cc:Work>
    </rdf:RDF>
  </metadata>
  <g
     inkscape:label="Layer 1"
     inkscape:groupmode="layer"
     id="layer1">
    <rect
       style="fill:#f89406;fill-opacity:1;fill-rule:nonzero;stroke:none"
       id="rect3003"
       width="751.12238"
       height="29.728554"
       x="-16.055325"
       y="224.25049"
       inkscape:export-xdpi="76"
       inkscape:export-ydpi="76" />
    <path
       style="font-size:136.25532532px;font-style:normal;font-weight:normal;line-height:125%;letter-spacing:0px;word-spacing:0px;fill:#000000;fill-opacity:1;stroke:none;font-family:Bitstream Vera Sans"
       d="M 80.875 173.40625 L 80.875 188.90625 L 93.09375 188.90625 L 93.09375 173.40625 L 80.875 173.40625 z M 204.6875 173.40625 L 204.6875 211.53125 L 217 211.53125 L 217 173.40625 L 204.6875 173.40625 z M 217 211.53125 L 217 234.53125 L 243.125 211.53125 L 217 211.53125 z M 243.125 211.53125 L 258.8125 211.53125 L 269.15625 202.40625 L 253.5 202.40625 L 243.125 211.53125 z M 258.8125 211.53125 L 229.625 237.28125 L 257.8125 264.40625 L 281.5 264.40625 C 279.61484 259.81916 278.65624 254.17963 278.65625 247.5 L 278.65625 211.53125 L 258.8125 211.53125 z M 278.65625 211.53125 L 290.90625 211.53125 L 290.90625 202.40625 L 278.65625 202.40625 L 278.65625 211.53125 z M 290.90625 211.53125 L 290.90625 247.0625 C 290.90623 254.1148 292.28128 259.3892 295.03125 262.9375 C 295.43997 263.4583 295.87428 263.96286 296.34375 264.40625 L 320.25 264.40625 C 321.2482 263.67219 322.17413 262.82181 323.03125 261.875 C 326.88998 257.66139 328.81244 251.93032 328.8125 244.65625 L 328.8125 211.53125 L 290.90625 211.53125 z M 328.8125 211.53125 L 341.0625 211.53125 L 341.0625 202.40625 L 328.8125 202.40625 L 328.8125 211.53125 z M 341.0625 211.53125 L 341.0625 264.40625 L 365.9375 264.40625 L 365.9375 211.53125 L 341.0625 211.53125 z M 365.9375 211.53125 L 378.25 211.53125 L 378.25 173.40625 L 365.9375 173.40625 L 365.9375 211.53125 z M 378.25 211.53125 L 378.25 213.71875 C 378.69294 212.95507 379.17386 212.22656 379.65625 211.53125 L 378.25 211.53125 z M 379.65625 211.53125 L 393.75 211.53125 C 395.4076 211.09183 397.20129 210.84377 399.09375 210.84375 C 400.98618 210.84377 402.75245 211.09183 404.40625 211.53125 L 424.21875 211.53125 C 424.17776 211.47875 424.13504 211.42726 424.09375 211.375 C 418.46073 204.18973 411.11065 200.62508 402.0625 200.625 C 396.60692 200.62508 391.91621 201.70173 387.96875 203.875 C 384.73763 205.63747 381.97548 208.18833 379.65625 211.53125 z M 424.21875 211.53125 C 429.8137 218.69705 432.62492 228.09452 432.625 239.71875 C 432.62493 249.53706 430.61651 257.76874 426.625 264.40625 L 449.75 264.40625 C 448.76116 261.66678 448.25 258.59462 448.25 255.21875 C 448.24999 246.83588 451.03639 240.53927 456.625 236.28125 C 462.25793 232.02332 470.64838 229.87505 481.78125 229.875 L 498.9375 229.875 L 498.9375 228.6875 C 498.93744 223.0546 497.06942 218.71673 493.34375 215.65625 C 490.88947 213.58644 487.76347 212.22121 483.96875 211.53125 L 470.4375 211.53125 C 468.72075 211.77905 467.02214 212.10707 465.34375 212.53125 C 461.30752 213.55145 457.44446 215.08478 453.71875 217.125 L 453.71875 211.53125 L 424.21875 211.53125 z M 453.71875 211.53125 L 470.4375 211.53125 C 472.84918 211.18314 475.29387 211.00004 477.78125 211 C 480.01372 211.00002 482.07139 211.18627 483.96875 211.53125 L 505.28125 211.53125 C 504.63629 210.62802 503.9384 209.78847 503.1875 209 C 497.86497 203.41148 489.84046 200.62508 479.0625 200.625 C 475.07061 200.62508 470.96359 201.0505 466.75 201.9375 C 462.53635 202.7803 458.19848 204.08277 453.71875 205.8125 L 453.71875 211.53125 z M 505.28125 211.53125 C 509.2078 217.03014 511.18744 224.65363 511.1875 234.40625 L 511.1875 264.40625 L 537.6875 264.40625 C 536.74649 261.14957 536.28124 257.14196 536.28125 252.375 L 536.28125 211.90625 L 527.28125 211.90625 L 527.28125 211.53125 L 505.28125 211.53125 z M 527.28125 211.53125 L 573.78125 211.53125 L 573.78125 202.40625 L 548.5625 202.40625 L 548.5625 181.25 L 536.28125 181.25 L 536.28125 202.40625 L 527.28125 202.40625 L 527.28125 211.53125 z M 573.78125 211.53125 L 573.78125 211.90625 L 548.5625 211.90625 L 548.5625 252.375 C 548.56248 258.45151 549.39013 262.36396 551.03125 264.09375 C 551.14156 264.20697 551.28131 264.30044 551.40625 264.40625 L 590.71875 264.40625 C 586.68162 257.93056 584.62499 249.69727 584.625 239.71875 C 584.62499 227.7853 587.51776 218.40695 593.25 211.53125 L 573.78125 211.53125 z M 593.25 211.53125 L 613.90625 211.53125 C 615.45093 211.17088 617.10646 211.00002 618.84375 211 C 620.56673 211.00002 622.18471 211.16884 623.71875 211.53125 L 644.375 211.53125 C 644.22335 211.35054 644.06188 211.17722 643.90625 211 C 637.8297 204.08086 629.48864 200.62508 618.84375 200.625 C 608.15442 200.62508 599.76397 204.08086 593.6875 211 C 593.53564 211.1742 593.39804 211.35368 593.25 211.53125 z M 644.375 211.53125 C 650.14414 218.40613 653.03118 227.79065 653.03125 239.71875 C 653.03119 249.69727 650.97302 257.93056 646.90625 264.40625 L 672.78125 264.40625 L 672.78125 211.53125 L 644.375 211.53125 z M 672.78125 211.53125 L 685.09375 211.53125 L 685.09375 202.40625 L 672.78125 202.40625 L 672.78125 211.53125 z M 685.09375 211.53125 L 685.09375 213.96875 C 685.58727 213.10084 686.13685 212.31264 686.6875 211.53125 L 685.09375 211.53125 z M 686.6875 211.53125 L 706.59375 211.53125 L 716.4375 211.53125 L 716.375 201.28125 C 715.13303 201.05956 713.98884 200.90128 712.96875 200.8125 C 711.94856 200.67951 711.03017 200.62508 710.1875 200.625 C 704.28838 200.62508 699.28113 201.71988 695.15625 203.9375 C 691.82265 205.69396 689.00717 208.23956 686.6875 211.53125 z M 716.4375 211.53125 L 716.4375 213.84375 C 715.06247 213.04544 713.54729 212.4799 711.90625 212.125 C 710.30946 211.72588 708.54528 211.53132 706.59375 211.53125 C 699.6745 211.53132 694.3507 213.78846 690.625 218.3125 C 686.9436 222.7923 685.09373 229.22905 685.09375 237.65625 L 685.09375 264.40625 L 742.125 264.40625 L 742.125 211.53125 L 716.4375 211.53125 z M 685.09375 264.40625 L 672.78125 264.40625 L 672.78125 276.9375 L 685.09375 276.9375 L 685.09375 264.40625 z M 646.90625 264.40625 L 630.875 264.40625 C 627.5714 267.10686 623.56744 268.46876 618.84375 268.46875 C 614.03571 268.46876 609.95401 267.10601 606.625 264.40625 L 590.71875 264.40625 C 591.61645 265.84619 592.59018 267.202 593.6875 268.46875 C 599.76397 275.38797 608.15442 278.84375 618.84375 278.84375 C 629.48864 278.84375 637.8297 275.38797 643.90625 268.46875 C 645.01162 267.202 646.00196 265.84619 646.90625 264.40625 z M 606.625 264.40625 L 630.875 264.40625 C 632.13127 263.37929 633.29284 262.16749 634.34375 260.75 C 638.15813 255.60496 640.06244 248.58957 640.0625 239.71875 C 640.06244 230.89236 638.15813 223.92636 634.34375 218.78125 C 631.53728 214.96324 627.98973 212.54023 623.71875 211.53125 L 613.90625 211.53125 C 609.61431 212.53256 606.05492 214.93539 603.25 218.71875 C 599.43554 223.81951 597.53123 230.80365 597.53125 239.71875 C 597.53123 248.63392 599.41739 255.66746 603.1875 260.8125 C 604.22684 262.20232 605.3782 263.39512 606.625 264.40625 z M 551.40625 264.40625 L 537.6875 264.40625 C 538.58517 267.51292 539.90225 269.92392 541.65625 271.65625 C 545.2489 275.16021 551.77133 276.9375 561.21875 276.9375 L 573.78125 276.9375 L 573.78125 266.6875 L 561.21875 266.6875 C 556.45185 266.68751 553.19026 265.91704 551.40625 264.40625 z M 511.1875 264.40625 L 489.625 264.40625 C 486.02039 267.20011 481.65132 268.59376 476.46875 268.59375 C 471.54543 268.59376 467.63298 267.34068 464.75 264.8125 C 464.60585 264.68186 464.48058 264.54146 464.34375 264.40625 L 449.75 264.40625 C 450.86586 267.4976 452.5937 270.18777 454.96875 272.46875 C 459.49283 276.72673 465.5586 278.84375 473.1875 278.84375 C 479.2196 278.84375 484.33068 277.78524 488.5 275.65625 C 492.66922 273.48291 496.14315 270.14911 498.9375 265.625 L 498.9375 276.9375 L 511.1875 276.9375 L 511.1875 264.40625 z M 464.34375 264.40625 L 489.625 264.40625 C 490.7403 263.5418 491.78576 262.53817 492.75 261.40625 C 496.87486 256.57169 498.93744 250.17124 498.9375 242.1875 L 498.9375 239.46875 L 486.78125 239.46875 C 476.89028 239.46879 470.03316 240.58174 466.21875 242.84375 C 462.40429 245.10583 460.49998 248.98199 460.5 254.4375 C 460.49998 258.56347 461.78606 261.87885 464.34375 264.40625 z M 426.625 264.40625 L 411.15625 264.40625 C 407.89242 267.20575 403.89115 268.59376 399.09375 268.59375 C 394.29502 268.59376 390.25735 267.20721 386.96875 264.40625 L 365.9375 264.40625 L 365.9375 276.9375 L 378.25 276.9375 L 378.25 265.75 C 380.8225 270.1854 384.06557 273.48291 387.96875 275.65625 C 391.91621 277.78524 396.60692 278.84375 402.0625 278.84375 C 411.11065 278.84375 418.46073 275.24784 424.09375 268.0625 C 425.01066 266.90202 425.85618 265.68473 426.625 264.40625 z M 386.96875 264.40625 L 411.15625 264.40625 C 412.298 263.42693 413.35842 262.29065 414.3125 260.96875 C 418.03817 255.82371 419.90618 248.72263 419.90625 239.71875 C 419.90618 230.71494 418.03817 223.66326 414.3125 218.5625 C 411.70693 214.92108 408.4115 212.59545 404.40625 211.53125 L 393.75 211.53125 C 389.73555 212.59545 386.41815 214.92108 383.78125 218.5625 C 380.09985 223.66326 378.24998 230.71494 378.25 239.71875 C 378.24998 248.72263 380.09985 255.82371 383.78125 260.96875 C 384.74608 262.28966 385.8195 263.42741 386.96875 264.40625 z M 341.0625 264.40625 L 320.25 264.40625 C 316.80585 266.93902 312.52996 268.21876 307.40625 268.21875 C 302.72379 268.21876 299.03293 266.94603 296.34375 264.40625 L 281.5 264.40625 C 282.50646 266.85523 283.76871 269.02246 285.3125 270.875 C 289.74787 276.19747 296.25216 278.84375 304.8125 278.84375 C 310.00187 278.84375 314.53431 277.76709 318.4375 275.59375 C 322.38495 273.37606 325.84073 269.99286 328.8125 265.46875 L 328.8125 276.9375 L 341.0625 276.9375 L 341.0625 264.40625 z M 257.8125 264.40625 L 241.8125 264.40625 L 254.84375 276.9375 L 270.8125 276.9375 L 257.8125 264.40625 z M 241.8125 264.40625 L 217 240.53125 L 217 264.40625 L 241.8125 264.40625 z M 217 264.40625 L 204.6875 264.40625 L 204.6875 276.9375 L 217 276.9375 L 217 264.40625 z M 204.6875 264.40625 L 204.6875 211.53125 L 176.0625 211.53125 C 179.08331 216.61819 180.59369 223.40259 180.59375 231.9375 L 180.59375 264.40625 L 204.6875 264.40625 z M 180.59375 264.40625 L 168.34375 264.40625 L 168.34375 276.9375 L 180.59375 276.9375 L 180.59375 264.40625 z M 168.34375 264.40625 L 168.34375 232.34375 C 168.34369 225.29152 166.96863 220.00402 164.21875 216.5 C 162.07031 213.76258 159.0768 212.1301 155.25 211.53125 L 147.90625 211.53125 C 143.13518 212.22624 139.23849 214.22676 136.21875 217.5625 C 132.40428 221.77618 130.49998 227.5385 130.5 234.8125 L 130.5 264.40625 L 168.34375 264.40625 z M 130.5 264.40625 L 118.1875 264.40625 L 118.1875 276.9375 L 130.5 276.9375 L 130.5 264.40625 z M 118.1875 264.40625 L 118.1875 211.53125 L 93.09375 211.53125 L 93.09375 264.40625 L 118.1875 264.40625 z M 93.09375 264.40625 L 80.875 264.40625 L 80.875 276.9375 L 93.09375 276.9375 L 93.09375 264.40625 z M 80.875 264.40625 L 80.875 211.53125 L 54.65625 211.53125 L 54.65625 264.40625 L 80.875 264.40625 z M 54.65625 264.40625 L 41.21875 264.40625 L 41.21875 270 C 41.218737 278.60466 40.001955 284.5797 37.5625 287.90625 C 35.123026 291.23278 30.912176 292.87498 24.96875 292.875 L 20.78125 292.875 L 20.78125 304.1875 L 25.90625 304.1875 C 35.974588 304.18747 43.288382 301.50491 47.8125 296.09375 C 52.380932 290.68255 54.656223 281.97556 54.65625 270 L 54.65625 264.40625 z M 41.21875 264.40625 L 41.21875 211.53125 L -22.90625 211.53125 L -22.90625 264.40625 L 41.21875 264.40625 z M 41.21875 211.53125 L 54.65625 211.53125 L 54.65625 177.59375 L 41.21875 177.59375 L 41.21875 211.53125 z M 80.875 211.53125 L 93.09375 211.53125 L 93.09375 202.40625 L 80.875 202.40625 L 80.875 211.53125 z M 118.1875 211.53125 L 130.5 211.53125 L 130.5 202.40625 L 118.1875 202.40625 L 118.1875 211.53125 z M 130.5 211.53125 L 130.5 213.96875 C 131.06397 213.10571 131.64817 212.31033 132.25 211.53125 L 130.5 211.53125 z M 132.25 211.53125 L 147.90625 211.53125 C 149.16179 211.34836 150.46692 211.25001 151.84375 211.25 C 153.04684 211.25001 154.17849 211.36357 155.25 211.53125 L 176.0625 211.53125 C 175.44129 210.48515 174.74896 209.49404 174 208.59375 C 169.6089 203.27135 163.154 200.62508 154.59375 200.625 C 149.40429 200.62508 144.80432 201.71988 140.8125 203.9375 C 137.62548 205.728 134.77205 208.26642 132.25 211.53125 z "
       id="text2985"
       inkscape:export-filename="/home/tygrysjs/projekty/jinkubator/logo/rect3003.png"
       inkscape:export-xdpi="76"
       inkscape:export-ydpi="76" />
    <text
       xml:space="preserve"
       style="font-size:40px;font-style:normal;font-weight:normal;line-height:125%;letter-spacing:0px;word-spacing:0px;fill:#000000;fill-opacity:1;stroke:none;font-family:Bitstream Vera Sans"
       x="71.428574"
       y="332.36218"
       id="text2989"
       sodipodi:linespacing="125%"
       inkscape:export-filename="/home/tygrysjs/projekty/jinkubator/logo/rect3003.png"
       inkscape:export-xdpi="76"
       inkscape:export-ydpi="76"><tspan
         sodipodi:role="line"
         id="tspan2991"
         x="71.428574"
         y="332.36218">DROGA DO PROFESJONALIZMU</tspan></text>
  </g>
</svg>
